<mxfile host="app.diagrams.net" modified="2023-06-11T19:46:40.898Z" agent="Mozilla/5.0 (Macintosh; Intel Mac OS X 10_15_7) AppleWebKit/537.36 (KHTML, like Gecko) Chrome/114.0.0.0 Safari/537.36" version="21.3.8" etag="M6bfQXmcEIW-7vJ50hD1" type="github">
  <diagram name="Page-1" id="VB5cN_S-AMe07vz8CGvR">
    <mxGraphModel>
      <root>
        <mxCell id="0" />
        <mxCell id="1" parent="0" />
      </root>
    </mxGraphModel>
  </diagram>
</mxfile>
